HIERARCHY
ROOT Hips
{
	OFFSET -3.958830 18.904000 13.208200
	CHANNELS 6 Xposition Yposition Zposition Zrotation Yrotation Xrotation 
	JOINT LHipJoint
	{
		OFFSET 0.000000 0.000000 0.000000
		CHANNELS 3 Zrotation Yrotation Xrotation
		JOINT LeftUpLeg
		{
			OFFSET 1.800000 -1.400000 0.085000
			CHANNELS 3 Zrotation Yrotation Xrotation
			JOINT LeftLeg
			{
				OFFSET 2.215000 -6.000000 0.000000
				CHANNELS 3 Zrotation Yrotation Xrotation
				JOINT LeftFoot
				{
					OFFSET 2.500000 -6.900000 0.000000
					CHANNELS 3 Zrotation Yrotation Xrotation
					JOINT LeftToeBase
					{
						OFFSET 0.200000 -0.500000 1.950000
						CHANNELS 3 Zrotation Yrotation Xrotation
						End Site
						{
							OFFSET 0.000000 0.000000 0.000000
						}
					}
				}
			}
		}
	}
	JOINT RHipJoint
	{
		OFFSET 0.000000 0.000000 0.000000
		CHANNELS 3 Zrotation Yrotation Xrotation
		JOINT RightUpLeg
		{
			OFFSET -1.800000 -1.400000 0.085000
			CHANNELS 3 Zrotation Yrotation Xrotation
			JOINT RightLeg
			{
				OFFSET -2.215000 -6.000000 0.000000
				CHANNELS 3 Zrotation Yrotation Xrotation
				JOINT RightFoot
				{
					OFFSET -2.500000 -6.900000 0.000000
					CHANNELS 3 Zrotation Yrotation Xrotation
					JOINT RightToeBase
					{
						OFFSET -0.200000 -0.500000 1.950000
						CHANNELS 3 Zrotation Yrotation Xrotation
						End Site
						{
							OFFSET 0.000000 0.000000 0.000000
						}
					}
				}
			}
		}
	}
	JOINT LowerBack
	{
		OFFSET 0.000000 0.000000 0.000000
		CHANNELS 3 Zrotation Yrotation Xrotation
		JOINT Spine
		{
			OFFSET -0.087000 1.940000 -0.288900
			CHANNELS 3 Zrotation Yrotation Xrotation
			JOINT Spine1
			{
				OFFSET 0.000000 1.950000 0.060000
				CHANNELS 3 Zrotation Yrotation Xrotation
				JOINT Neck
				{
					OFFSET 0.000000 0.000000 0.000000
					CHANNELS 3 Zrotation Yrotation Xrotation
					JOINT Neck1
					{
						OFFSET 0.000000 1.600000 0.340000
						CHANNELS 3 Zrotation Yrotation Xrotation
						JOINT Head
						{
							OFFSET 0.000000 1.667000 -0.240000
							CHANNELS 3 Zrotation Yrotation Xrotation
							End Site
							{
								OFFSET 0.000000 0.000000 0.000000
							}
						}
					}
				}
				JOINT LeftShoulder
				{
					OFFSET 0.000000 0.000000 0.000000
					CHANNELS 3 Zrotation Yrotation Xrotation
					JOINT LeftArm
					{
						OFFSET 2.700000 1.550000 -0.730000
						CHANNELS 3 Zrotation Yrotation Xrotation
						JOINT LeftForeArm
						{
							OFFSET 5.450000 0.000000 0.000000
							CHANNELS 3 Zrotation Yrotation Xrotation
							JOINT LeftHand
							{
								OFFSET 3.450000 0.000000 0.000000
								CHANNELS 3 Zrotation Yrotation Xrotation
								JOINT LeftHandIndex1
								{
									OFFSET 0.750000 0.000000 0.000000
									CHANNELS 3 Zrotation Yrotation Xrotation
									End Site
									{
										OFFSET 0.000000 0.000000 0.000000
									}
								}
							}
						}
					}
				}
				JOINT RightShoulder
				{
					OFFSET 0.000000 0.000000 0.000000
					CHANNELS 3 Zrotation Yrotation Xrotation
					JOINT RightArm
					{
						OFFSET -2.700000 1.550000 -0.730000
						CHANNELS 3 Zrotation Yrotation Xrotation
						JOINT RightForeArm
						{
							OFFSET -5.450000 0.000000 0.000000
							CHANNELS 3 Zrotation Yrotation Xrotation
							JOINT RightHand
							{
								OFFSET -3.450000 0.000000 0.000000
								CHANNELS 3 Zrotation Yrotation Xrotation
								JOINT RightHandIndex1
								{
									OFFSET -0.750000 0.000000 0.000000
									CHANNELS 3 Zrotation Yrotation Xrotation
									End Site
									{
										OFFSET 0.000000 0.000000 0.000000
									}
								}
							}
						}
					}
				}
			}
		}
	}
}
MOTION
Frames: 7
Frame Time: 0.016667
0.586870 16.821840 -1.365870 -2.003613 -2.355248 6.876915 -15.452519 12.881019 2.985742 0.852640 -0.940038 -7.720908 -9.496253 4.519987 3.998714 -0.418347 4.041443 3.536022 0.663690 0.250890 0.308840 18.003516 -10.436442 2.706970 -23.554305 0.346369 -15.807992 2.405682 -3.606628 1.177233 -0.480230 -3.704715 3.190247 0.112920 0.390520 0.547180 -2.810239 -1.670385 -7.190145 -0.700194 0.873037 3.536481 3.622369 0.618032 1.298504 1.642514 0.109229 -6.419123 -0.535909 3.419339 29.159420 -2.475690 4.388700 -13.268800 -29.609165 -6.160066 2.116097 -51.298476 -7.055014 -0.884558 -6.868611 -17.760961 -0.922990 -3.826205 3.060753 0.662150 0.261370 0.046240 0.475900 27.597344 7.832807 3.065280 50.464434 7.383752 -3.769590 0.370979 16.736940 -1.041719 1.935797 -1.520369 -0.085700 0.127620 -0.146530 -0.188760 
0.593030 16.819130 -1.369670 -1.822521 -2.194664 6.914138 -15.459187 12.870819 2.992898 0.609311 -0.956188 -7.733189 -9.483438 4.489689 3.911729 -0.421317 4.032244 3.538779 0.670410 0.250620 0.319810 18.000567 -10.422693 2.708408 -23.803393 0.323038 -15.825750 2.419712 -3.627535 1.186628 -0.487036 -3.718081 3.177564 0.112360 0.385330 0.553010 -2.798599 -1.681852 -7.192715 -0.915913 0.831319 3.528764 3.554073 0.586730 1.220255 1.678154 0.157063 -6.380735 -0.439285 3.389029 29.050897 -2.445840 4.375630 -13.508960 -29.596323 -6.041759 2.064235 -51.188113 -7.044011 -0.878041 -6.944167 -17.752699 -0.913615 -3.824630 3.065209 0.668200 0.257130 0.050690 0.474440 27.518136 7.681892 3.002826 50.568272 7.406617 -3.757685 0.255586 16.689556 -1.051974 1.937558 -1.520172 -0.083460 0.124190 -0.148080 -0.193000 
0.602380 16.817500 -1.376960 -1.644486 -2.003971 6.881391 -15.469524 12.864086 3.007375 0.402674 -0.951208 -7.675517 -9.570725 4.475486 3.779905 -0.417104 4.027267 3.532819 0.674200 0.254170 0.327320 17.992168 -10.407880 2.711018 -24.069331 0.285227 -15.821464 2.446419 -3.659220 1.204230 -0.496128 -3.731703 3.162517 0.109460 0.370980 0.560420 -2.773692 -1.701485 -7.211817 -1.132329 0.780824 3.613152 3.475818 0.543076 1.202786 1.788531 0.242698 -6.419285 -0.303400 3.280376 29.224635 -2.643860 4.411150 -13.866170 -29.729431 -6.149891 2.085050 -50.944046 -7.043432 -0.893575 -6.976214 -17.735019 -0.904202 -3.817721 3.072006 0.674720 0.249470 0.062230 0.468360 27.445200 7.745404 3.035899 50.596056 7.450018 -3.749592 0.160667 16.677145 -1.050969 1.941302 -1.517170 -0.075060 0.114490 -0.148050 -0.195980 
0.612500 16.815490 -1.388580 -1.384112 -1.942573 6.828495 -15.483506 12.865006 3.021051 0.073374 -0.945755 -7.631607 -9.571191 4.460132 3.743632 -0.421184 4.014016 3.534260 0.681750 0.264060 0.333700 17.981583 -10.396454 2.704538 -24.413174 0.223381 -15.970157 2.435312 -3.699206 1.394033 -0.499846 -3.736388 3.153641 0.114500 0.362040 0.558550 -2.739031 -1.732091 -7.221002 -1.523931 0.781321 3.713585 3.524610 0.549795 1.256375 1.821280 0.287262 -6.448551 -0.243451 3.199981 29.332743 -2.681920 4.378170 -14.219260 -29.744979 -6.270967 2.098023 -50.845092 -7.166994 -0.859644 -6.979122 -17.706935 -0.901263 -3.808759 3.070600 0.682450 0.242390 0.069640 0.468310 27.419970 7.873901 3.069774 50.482106 7.564556 -3.705163 0.241355 16.680773 -1.034898 1.940783 -1.514135 -0.074640 0.115800 -0.152140 -0.198380 
0.627720 16.813110 -1.401140 -1.328723 -1.854467 6.745652 -15.483003 12.879391 3.035975 -0.083123 -0.954635 -7.629704 -9.523918 4.444155 3.768879 -0.419426 3.995334 3.535605 0.698000 0.281020 0.346360 17.979000 -10.409316 2.692388 -24.580638 0.167869 -16.131752 2.420191 -3.743062 1.720611 -0.506397 -3.723570 3.150229 0.119050 0.347300 0.564560 -2.736381 -1.748840 -7.238601 -1.413648 0.728306 3.936877 3.337410 0.514191 1.273921 1.897603 0.209533 -6.476324 -0.394250 3.166703 29.453279 -2.746790 4.346560 -14.686970 -29.862618 -6.397206 2.081501 -50.610580 -7.300366 -0.812388 -7.063754 -17.581615 -0.885412 -3.794835 3.078468 0.690250 0.231690 0.084500 0.471890 27.368003 8.050228 3.131649 50.379345 7.662216 -3.673371 0.363828 16.684088 -1.011563 1.943904 -1.515605 -0.064650 0.110000 -0.162650 -0.198270 
0.643420 16.810040 -1.413220 -1.302628 -1.763731 6.658077 -15.481070 12.882370 3.043668 -0.184717 -0.955852 -7.602472 -9.524353 4.438326 3.766359 -0.415640 3.984916 3.539356 0.710430 0.296650 0.352860 17.980317 -10.409034 2.692603 -24.756120 0.123825 -16.212690 2.494400 -3.775819 1.869430 -0.511019 -3.726661 3.147383 0.125070 0.341930 0.562960 -2.742253 -1.762052 -7.254102 -1.276287 0.694252 4.063983 3.206165 0.489458 1.425179 1.902241 0.098853 -6.552205 -0.614908 3.144162 29.582524 -2.625940 4.211890 -14.863660 -29.854121 -6.682147 2.125180 -50.582099 -7.543745 -0.707533 -6.996657 -17.346936 -0.895073 -3.785630 3.079315 0.691780 0.225670 0.090600 0.477040 27.330284 8.395353 3.259805 50.240536 7.738511 -3.616373 0.355052 16.493613 -1.006347 1.946871 -1.518033 -0.059160 0.111910 -0.171900 -0.195320 
0.661160 16.806580 -1.423830 -1.262574 -1.602995 6.575884 -15.480643 12.885308 3.050840 -0.280661 -0.954605 -7.583485 -9.592665 4.454048 3.796999 -0.424630 3.990836 3.539236 0.712860 0.300350 0.351360 17.980745 -10.400343 2.696320 -24.985004 0.077763 -16.249032 2.591353 -3.814365 1.962955 -0.511416 -3.738765 3.146125 0.131310 0.343080 0.552530 -2.745526 -1.789292 -7.271766 -1.140018 0.607685 4.166671 3.084497 0.418380 1.559694 1.902702 -0.038057 -6.631153 -0.883816 3.156182 29.706944 -2.539230 4.089770 -15.021810 -29.840687 -6.960616 2.174953 -50.644548 -7.730874 -0.620014 -6.836131 -17.113455 -0.927384 -3.780141 3.066256 0.699920 0.222210 0.089270 0.480280 27.297102 8.735190 3.382950 50.132187 7.811520 -3.568211 0.266339 16.254119 -1.004867 1.943442 -1.511267 -0.068590 0.124610 -0.172740 -0.197580 
